# xmcd CD database file
#
# Track frame offsets:
#	150
#	18280
#	37001
#	53886
#	78837
#	95627
#	115227
#	142527
#	157424
#	171959
#	187389
#	202852
#
# Disc length: 2914 seconds
#
# Revision: 0
# Processed by: cddbd v1.5.2PL0 Copyright (c) Steve Scherf et al.
# Submitted via: CDex 1.70beta2
#
DISCID=a00b600c
DTITLE=Rostro de Cobre - KERUMANTU
DYEAR=2001
DGENRE=Country
TTITLE0=AMANECER
TTITLE1=AGUAS CLARAS
TTITLE2=ROSTRO DE COBRE
TTITLE3=QUIEREME
TTITLE4=PA'MI CARNAVAL
TTITLE5=MI NEGRA
TTITLE6=PUERTA DEL SOL
TTITLE7=PURU RUNAS
TTITLE8=LINDA
TTITLE9=PONCHITO
TTITLE10=IMILLITAY
TTITLE11=WARA
EXTD=YEAR: 2001
EXTT0=
EXTT1=
EXTT2=
EXTT3=
EXTT4=
EXTT5=
EXTT6=
EXTT7=
EXTT8=
EXTT9=
EXTT10=
EXTT11=
PLAYORDER=
